<mxfile host="app.diagrams.net" modified="2020-04-03T05:14:22.955Z" agent="5.0 (Windows NT 10.0; Win64; x64) AppleWebKit/537.36 (KHTML, like Gecko) Chrome/80.0.3987.162 Safari/537.36" etag="X__oy2KTINZME7OqjpwP" version="12.9.6" type="github">
  <diagram id="dGKBFPYiwpmIOAX59vnf" name="第 1 页">
    <mxGraphModel dx="868" dy="505" grid="1" gridSize="10" guides="1" tooltips="1" connect="1" arrows="1" fold="1" page="1" pageScale="1" pageWidth="1169" pageHeight="827" math="0" shadow="0">
      <root>
        <mxCell id="0" />
        <mxCell id="1" parent="0" />
        <mxCell id="NiqGO4zymzfqbItkf5tZ-1" value="设计开始" style="rounded=1;whiteSpace=wrap;html=1;fillColor=#A9C4EB;" vertex="1" parent="1">
          <mxGeometry x="120" y="120" width="120" height="40" as="geometry" />
        </mxCell>
        <mxCell id="NiqGO4zymzfqbItkf5tZ-9" style="edgeStyle=orthogonalEdgeStyle;rounded=0;orthogonalLoop=1;jettySize=auto;html=1;exitX=0.5;exitY=1;exitDx=0;exitDy=0;entryX=0.5;entryY=0;entryDx=0;entryDy=0;fillColor=#A9C4EB;" edge="1" parent="1" source="NiqGO4zymzfqbItkf5tZ-2" target="NiqGO4zymzfqbItkf5tZ-3">
          <mxGeometry relative="1" as="geometry" />
        </mxCell>
        <mxCell id="NiqGO4zymzfqbItkf5tZ-2" value="输入设计纲领&lt;br&gt;（网页选择/输入）" style="rounded=0;whiteSpace=wrap;html=1;fillColor=#A9C4EB;" vertex="1" parent="1">
          <mxGeometry x="120" y="200" width="120" height="40" as="geometry" />
        </mxCell>
        <mxCell id="NiqGO4zymzfqbItkf5tZ-10" style="edgeStyle=orthogonalEdgeStyle;rounded=0;orthogonalLoop=1;jettySize=auto;html=1;exitX=0.5;exitY=1;exitDx=0;exitDy=0;entryX=0.5;entryY=0;entryDx=0;entryDy=0;fillColor=#A9C4EB;" edge="1" parent="1" source="NiqGO4zymzfqbItkf5tZ-3" target="NiqGO4zymzfqbItkf5tZ-4">
          <mxGeometry relative="1" as="geometry" />
        </mxCell>
        <mxCell id="NiqGO4zymzfqbItkf5tZ-3" value="按产品结构进行物量分解&lt;br&gt;（内置）" style="rounded=0;whiteSpace=wrap;html=1;fillColor=#A9C4EB;" vertex="1" parent="1">
          <mxGeometry x="120" y="280" width="120" height="40" as="geometry" />
        </mxCell>
        <mxCell id="NiqGO4zymzfqbItkf5tZ-11" style="edgeStyle=orthogonalEdgeStyle;rounded=0;orthogonalLoop=1;jettySize=auto;html=1;exitX=0.5;exitY=1;exitDx=0;exitDy=0;fillColor=#A9C4EB;" edge="1" parent="1" source="NiqGO4zymzfqbItkf5tZ-4" target="NiqGO4zymzfqbItkf5tZ-5">
          <mxGeometry relative="1" as="geometry" />
        </mxCell>
        <mxCell id="NiqGO4zymzfqbItkf5tZ-4" value="工艺设计原则&lt;br&gt;（网页选择）" style="rounded=0;whiteSpace=wrap;html=1;fillColor=#A9C4EB;" vertex="1" parent="1">
          <mxGeometry x="120" y="360" width="120" height="40" as="geometry" />
        </mxCell>
        <mxCell id="NiqGO4zymzfqbItkf5tZ-12" style="edgeStyle=orthogonalEdgeStyle;rounded=0;orthogonalLoop=1;jettySize=auto;html=1;exitX=0.5;exitY=1;exitDx=0;exitDy=0;entryX=0.5;entryY=0;entryDx=0;entryDy=0;fillColor=#A9C4EB;" edge="1" parent="1" source="NiqGO4zymzfqbItkf5tZ-5" target="NiqGO4zymzfqbItkf5tZ-6">
          <mxGeometry relative="1" as="geometry" />
        </mxCell>
        <mxCell id="NiqGO4zymzfqbItkf5tZ-5" value="分道计算加工物量&lt;br&gt;（内置）" style="rounded=0;whiteSpace=wrap;html=1;fillColor=#A9C4EB;" vertex="1" parent="1">
          <mxGeometry x="120" y="440" width="120" height="40" as="geometry" />
        </mxCell>
        <mxCell id="NiqGO4zymzfqbItkf5tZ-13" style="edgeStyle=orthogonalEdgeStyle;rounded=0;orthogonalLoop=1;jettySize=auto;html=1;exitX=0.5;exitY=1;exitDx=0;exitDy=0;entryX=0.5;entryY=0;entryDx=0;entryDy=0;fillColor=#A9C4EB;" edge="1" parent="1" source="NiqGO4zymzfqbItkf5tZ-6" target="NiqGO4zymzfqbItkf5tZ-7">
          <mxGeometry relative="1" as="geometry" />
        </mxCell>
        <mxCell id="NiqGO4zymzfqbItkf5tZ-19" style="edgeStyle=orthogonalEdgeStyle;rounded=0;orthogonalLoop=1;jettySize=auto;html=1;exitX=1;exitY=0.5;exitDx=0;exitDy=0;entryX=0;entryY=0.5;entryDx=0;entryDy=0;" edge="1" parent="1" source="NiqGO4zymzfqbItkf5tZ-6" target="NiqGO4zymzfqbItkf5tZ-14">
          <mxGeometry relative="1" as="geometry" />
        </mxCell>
        <mxCell id="NiqGO4zymzfqbItkf5tZ-6" value="工艺设备推荐&lt;br&gt;（网页推荐，修改）" style="rounded=0;whiteSpace=wrap;html=1;fillColor=#A9C4EB;" vertex="1" parent="1">
          <mxGeometry x="120" y="520" width="120" height="40" as="geometry" />
        </mxCell>
        <mxCell id="NiqGO4zymzfqbItkf5tZ-7" value="工艺计算文件&lt;br&gt;（网页，设备表）" style="shape=document;whiteSpace=wrap;html=1;boundedLbl=1;fillColor=#A9C4EB;" vertex="1" parent="1">
          <mxGeometry x="120" y="600" width="120" height="60" as="geometry" />
        </mxCell>
        <mxCell id="NiqGO4zymzfqbItkf5tZ-8" value="" style="endArrow=classic;html=1;exitX=0.5;exitY=1;exitDx=0;exitDy=0;entryX=0.5;entryY=0;entryDx=0;entryDy=0;fillColor=#A9C4EB;" edge="1" parent="1" source="NiqGO4zymzfqbItkf5tZ-1" target="NiqGO4zymzfqbItkf5tZ-2">
          <mxGeometry width="50" height="50" relative="1" as="geometry">
            <mxPoint x="390" y="280" as="sourcePoint" />
            <mxPoint x="440" y="230" as="targetPoint" />
          </mxGeometry>
        </mxCell>
        <mxCell id="NiqGO4zymzfqbItkf5tZ-14" value="工艺设备布置数据" style="shape=internalStorage;whiteSpace=wrap;html=1;backgroundOutline=1;" vertex="1" parent="1">
          <mxGeometry x="600" y="360" width="80" height="60" as="geometry" />
        </mxCell>
        <mxCell id="NiqGO4zymzfqbItkf5tZ-15" value="船舶产品数据" style="shape=datastore;whiteSpace=wrap;html=1;" vertex="1" parent="1">
          <mxGeometry x="320" y="280" width="60" height="60" as="geometry" />
        </mxCell>
        <mxCell id="NiqGO4zymzfqbItkf5tZ-16" value="加工工艺数据" style="shape=datastore;whiteSpace=wrap;html=1;" vertex="1" parent="1">
          <mxGeometry x="320" y="360" width="60" height="60" as="geometry" />
        </mxCell>
        <mxCell id="NiqGO4zymzfqbItkf5tZ-17" value="设备效能数据" style="shape=datastore;whiteSpace=wrap;html=1;" vertex="1" parent="1">
          <mxGeometry x="320" y="440" width="60" height="60" as="geometry" />
        </mxCell>
        <mxCell id="NiqGO4zymzfqbItkf5tZ-18" value="工艺(公用)指标数据" style="shape=datastore;whiteSpace=wrap;html=1;" vertex="1" parent="1">
          <mxGeometry x="320" y="560" width="60" height="60" as="geometry" />
        </mxCell>
      </root>
    </mxGraphModel>
  </diagram>
</mxfile>
